# xmcd
#
# Track frame offsets:
#	150
#	23693
#	45606
#	70581
#	91977
#	113312
#	133528
#	151969
#	168463
#	187745
#	206968
#
# Disc length: 3008 seconds
#
# Revision: 1
# Processed by: cddbd v1.5.2PL0 Copyright (c) Steve Scherf et al.
# Submitted via: audiograbber 1.83.01
#
DISCID=820bbe0b
DTITLE=Curtis Mayfield - Curtis Mayfield
DYEAR=1900
DGENRE=Soul
TTITLE0=Summer Hot
TTITLE1=You Mean Everything To Me
TTITLE2=Babydoll
TTITLE3=Hey Baby (Give It All To Me)
TTITLE4=Nobody But You
TTITLE5=Just Ease My Mind
TTITLE6=Dirty Laundry
TTITLE7=You Get All My Love
TTITLE8=Come Free Your People
TTITLE9=She Don't Let Nobody (but me)
TTITLE10=Toot'n Toot'n Toot
EXTD=
EXTT0=
EXTT1=
EXTT2=
EXTT3=
EXTT4=
EXTT5=
EXTT6=
EXTT7=
EXTT8=
EXTT9=
EXTT10=
PLAYORDER=
